C:\Users\r0593348\3dpredictsim\Results\Batchsim_tmt_linear_v2\Pog_s1_tmt_aCst_d00_k500_ig24_pas_GRF.mot
nRows=30
nColumns=19

name C:\Users\r0593348\3dpredictsim\Results\Batchsim_tmt_linear_v2\Pog_s1_tmt_aCst_d00_k500_ig24_pas_GRF.mot
datacolumns 19
datarows 30
range 0.5500831694 0.8691314076
endheader
time 	ground_force_vx	ground_force_vy	ground_force_vz	ground_force_px	ground_force_py	ground_force_pz	1_ground_force_vx	1_ground_force_vy	1_ground_force_vz	1_ground_force_px	1_ground_force_py	1_ground_force_pz	ground_torque_x	ground_torque_y	ground_torque_z	1_ground_torque_x	1_ground_torque_y	1_ground_torque_z
        0.5500831694	       99.8815507790	      423.0761722045	       -1.6064377555	        0.3350942601	        0.0000000000	        0.0435766862	      -72.1200394989	       58.5604243822	      -21.7840577015	        0.8533377484	        0.0000000000	       -0.0444375160	        0.0000000000	        0.0000000000	        0.0000000000	        0.0000000000	        0.0000000000	        0.0000000000	
        0.5610848327	       61.6926633233	      311.1720893341	        4.9348868767	        0.3540209574	        0.0000000000	        0.0399658234	     -129.4131735894	      139.8073464084	      -58.5871797968	        0.8606354389	        0.0000000000	       -0.0426192195	        0.0000000000	        0.0000000000	        0.0000000000	        0.0000000000	        0.0000000000	        0.0000000000	
        0.5720864961	       24.3852220747	      206.1439801849	        8.9183845992	        0.3847968823	        0.0000000000	        0.0329946664	      -68.1737193650	      301.4613976712	      -23.3424657259	        0.8667077976	        0.0000000000	       -0.0406854838	        0.0000000000	        0.0000000000	        0.0000000000	        0.0000000000	        0.0000000000	        0.0000000000	
        0.5830881595	        2.3804349036	      147.5465952472	       11.1539198589	        0.4097711848	        0.0000000000	        0.0249896893	      -72.5359524095	      508.6247059489	       -0.2589611114	        0.8719800284	        0.0000000000	       -0.0412704097	        0.0000000000	        0.0000000000	        0.0000000000	        0.0000000000	        0.0000000000	        0.0000000000	
        0.5940898229	       -1.1641252600	      117.7113098753	       10.6767140400	        0.4093479119	        0.0000000000	        0.0253472272	     -114.4727249418	      775.5931378943	       13.3386576313	        0.8822812168	        0.0000000000	       -0.0441584442	        0.0000000000	        0.0000000000	        0.0000000000	        0.0000000000	        0.0000000000	        0.0000000000	
        0.6050914863	       -3.9808498597	       78.0065432951	       10.0311027758	        0.4098425632	        0.0000000000	        0.0254518536	     -140.2787830207	      945.1400976106	       19.4823940596	        0.8892338039	        0.0000000000	       -0.0460351828	        0.0000000000	        0.0000000000	        0.0000000000	        0.0000000000	        0.0000000000	        0.0000000000	
        0.6160931497	       -8.5473143219	       32.9793174859	        6.2890686865	        0.4096193319	        0.0000000000	        0.0255049566	     -144.3211929569	      981.2293562397	       20.0029420259	        0.8939236631	        0.0000000000	       -0.0471930199	        0.0000000000	        0.0000000000	        0.0000000000	        0.0000000000	        0.0000000000	        0.0000000000	
        0.6270948131	        0.1295049264	       -0.1308270775	       -0.0092115837	        0.0000000000	        0.0000000000	        0.0000000000	     -133.6129502485	      940.5972104676	       20.1651111301	        0.8976864386	        0.0000000000	       -0.0479784419	        0.0000000000	        0.0000000000	        0.0000000000	        0.0000000000	        0.0000000000	        0.0000000000	
        0.6380964764	        0.0001535681	       -0.0001276241	        0.0000040851	        0.0000000000	        0.0000000000	        0.0000000000	     -116.1307090747	      875.9611256334	       19.2086912689	        0.9014228597	        0.0000000000	       -0.0485789201	        0.0000000000	        0.0000000000	        0.0000000000	        0.0000000000	        0.0000000000	        0.0000000000	
        0.6490981398	        0.0000903092	       -0.0000657196	        0.0000040603	        0.0000000000	        0.0000000000	        0.0000000000	     -101.6953358085	      819.9035157897	       18.2833223831	        0.9058101669	        0.0000000000	       -0.0492938076	        0.0000000000	        0.0000000000	        0.0000000000	        0.0000000000	        0.0000000000	        0.0000000000	
        0.6600998032	        0.0009219711	       -0.0006015963	        0.0000490556	        0.0000000000	        0.0000000000	        0.0000000000	      -93.3528828043	      782.3985827092	       17.9630397151	        0.9114547864	        0.0000000000	       -0.0497033440	        0.0000000000	        0.0000000000	        0.0000000000	        0.0000000000	        0.0000000000	        0.0000000000	
        0.6711014666	        0.0075545757	       -0.0045157135	        0.0004307404	        0.0000000000	        0.0000000000	        0.0000000000	      -84.3296288205	      746.2972117340	       17.4727248675	        0.9172297787	        0.0000000000	       -0.0498351807	        0.0000000000	        0.0000000000	        0.0000000000	        0.0000000000	        0.0000000000	        0.0000000000	
        0.6821031300	       -0.0521695415	        0.0290186530	       -0.0030857009	        0.0000000000	        0.0000000000	        0.0000000000	      -75.1702043084	      710.0355363769	       17.3178301022	        0.9227229008	        0.0000000000	       -0.0498695320	        0.0000000000	        0.0000000000	        0.0000000000	        0.0000000000	        0.0000000000	        0.0000000000	
        0.6931047934	       -0.0359696552	        0.0188230760	       -0.0021766243	        0.0000000000	        0.0000000000	        0.0000000000	      -67.0039718937	      679.0930801740	       17.0550738420	        0.9280878476	        0.0000000000	       -0.0497742899	        0.0000000000	        0.0000000000	        0.0000000000	        0.0000000000	        0.0000000000	        0.0000000000	
        0.7041064568	       -0.0249443450	        0.0123820849	       -0.0015297199	        0.0000000000	        0.0000000000	        0.0000000000	      -58.9153040468	      654.4835551306	       17.0438580733	        0.9332884966	        0.0000000000	       -0.0496523011	        0.0000000000	        0.0000000000	        0.0000000000	        0.0000000000	        0.0000000000	        0.0000000000	
        0.7151081202	       -0.0216951243	        0.0102818999	       -0.0013404260	        0.0000000000	        0.0000000000	        0.0000000000	      -52.4094067498	      635.6132465508	       17.3964711435	        0.9382959945	        0.0000000000	       -0.0495161927	        0.0000000000	        0.0000000000	        0.0000000000	        0.0000000000	        0.0000000000	        0.0000000000	
        0.7261097835	       -0.0245221961	        0.0111570816	       -0.0015274954	        0.0000000000	        0.0000000000	        0.0000000000	      -47.3442003748	      621.8537776448	       17.9897979842	        0.9430272715	        0.0000000000	       -0.0493540954	        0.0000000000	        0.0000000000	        0.0000000000	        0.0000000000	        0.0000000000	        0.0000000000	
        0.7371114469	       -0.0348501734	        0.0153031750	       -0.0021906549	        0.0000000000	        0.0000000000	        0.0000000000	      -43.1145513190	      611.9670169197	       18.6478471610	        0.9474603132	        0.0000000000	       -0.0491728585	        0.0000000000	        0.0000000000	        0.0000000000	        0.0000000000	        0.0000000000	        0.0000000000	
        0.7481131103	       -0.0586152079	        0.0249626711	       -0.0037334133	        0.0000000000	        0.0000000000	        0.0000000000	      -39.1192855362	      604.3576446295	       19.5368206360	        0.9515815110	        0.0000000000	       -0.0489719035	        0.0000000000	        0.0000000000	        0.0000000000	        0.0000000000	        0.0000000000	        0.0000000000	
        0.7591147737	       -0.1086469787	        0.0450742472	       -0.0070384768	        0.0000000000	        0.0000000000	        0.0000000000	      -35.0928316112	      597.9007258189	       20.4244634208	        0.9554293420	        0.0000000000	       -0.0487594649	        0.0000000000	        0.0000000000	        0.0000000000	        0.0000000000	        0.0000000000	        0.0000000000	
        0.7701164371	       -0.2069042351	        0.0839628086	       -0.0136320121	        0.0000000000	        0.0000000000	        0.0000000000	      -31.1285255736	      591.9941937299	       20.9128699012	        0.9590354375	        0.0000000000	       -0.0485508097	        0.0000000000	        0.0000000000	        0.0000000000	        0.0000000000	        0.0000000000	        0.0000000000	
        0.7811181005	       -0.3798152603	        0.1513494762	       -0.0253199462	        0.0000000000	        0.0000000000	        0.0000000000	      -27.2837189397	      586.2888893090	       20.9245128974	        0.9624181785	        0.0000000000	       -0.0483545614	        0.0000000000	        0.0000000000	        0.0000000000	        0.0000000000	        0.0000000000	        0.0000000000	
        0.7921197639	       -0.6442568888	        0.2529052465	       -0.0431669300	        0.0000000000	        0.0000000000	        0.0000000000	      -23.4886223251	      580.0673119400	       20.7183815712	        0.9655737398	        0.0000000000	       -0.0481628779	        0.0000000000	        0.0000000000	        0.0000000000	        0.0000000000	        0.0000000000	        0.0000000000	
        0.8031214273	       -0.9917644077	        0.3844147346	       -0.0663311439	        0.0000000000	        0.0000000000	        0.0000000000	      -19.5268635917	      573.0433058782	       20.2240102792	        0.9685232349	        0.0000000000	       -0.0479792944	        0.0000000000	        0.0000000000	        0.0000000000	        0.0000000000	        0.0000000000	        0.0000000000	
        0.8141230906	       -1.3935893155	        0.5341344678	       -0.0924129588	        0.0000000000	        0.0000000000	        0.0000000000	      -15.3677109550	      565.3618384038	       19.5600362558	        0.9712762743	        0.0000000000	       -0.0478018787	        0.0000000000	        0.0000000000	        0.0000000000	        0.0000000000	        0.0000000000	        0.0000000000	
        0.8251247540	       -1.7887959651	        0.6790656957	       -0.1165790917	        0.0000000000	        0.0000000000	        0.0000000000	      -11.2724738339	      557.4560240620	       18.5808550822	        0.9737911442	        0.0000000000	       -0.0476351723	        0.0000000000	        0.0000000000	        0.0000000000	        0.0000000000	        0.0000000000	        0.0000000000	
        0.8361264174	       -2.0882410287	        0.7865392811	       -0.1319911050	        0.0000000000	        0.0000000000	        0.0000000000	       -6.8778945998	      551.0067350916	       17.5124279623	        0.9760011202	        0.0000000000	       -0.0474685433	        0.0000000000	        0.0000000000	        0.0000000000	        0.0000000000	        0.0000000000	        0.0000000000	
        0.8471280808	       -2.1973051303	        0.8224954385	       -0.1326546292	        0.0000000000	        0.0000000000	        0.0000000000	       -1.9751331300	      546.9408521250	       16.3148059490	        0.9777893901	        0.0000000000	       -0.0472964700	        0.0000000000	        0.0000000000	        0.0000000000	        0.0000000000	        0.0000000000	        0.0000000000	
        0.8581297442	       -2.0481732814	        0.7629752889	       -0.1155292410	        0.0000000000	        0.0000000000	        0.0000000000	        3.5614968938	      545.2985418010	       14.7395837131	        0.9792072238	        0.0000000000	       -0.0471224248	        0.0000000000	        0.0000000000	        0.0000000000	        0.0000000000	        0.0000000000	        0.0000000000	
        0.8691314076	       -1.6425305808	        0.6095556298	       -0.0837163127	        0.0000000000	        0.0000000000	        0.0000000000	        9.8563333173	      544.8141755848	       12.8347016518	        0.9804659727	        0.0000000000	       -0.0469527057	        0.0000000000	        0.0000000000	        0.0000000000	        0.0000000000	        0.0000000000	        0.0000000000	
